<?xml version="1.0" encoding="UTF-8"?>
<svg version="1.1" xmlns="http://www.w3.org/2000/svg" width="1024" height="1024">
<path d="M0 0 C1.25651362 2.17349172 2.43469799 4.33352556 3.57421875 6.56640625 C3.90291458 7.20110336 4.23161041 7.83580048 4.57026672 8.48973083 C5.26126925 9.82726486 5.94946153 11.16625401 6.63500977 12.5065918 C7.68741858 14.56234095 8.75022537 16.61245827 9.81445312 18.66210938 C10.48499847 19.96322054 11.15494143 21.26464237 11.82421875 22.56640625 C12.14291428 23.18101212 12.4616098 23.79561798 12.78996277 24.42884827 C15 28.76916274 15 28.76916274 15 31 C13.91283691 30.97643433 13.91283691 30.97643433 12.80371094 30.95239258 C9.45255651 30.88921857 6.10152803 30.85075114 2.75 30.8125 C1.61046875 30.78736328 0.4709375 30.76222656 -0.703125 30.73632812 C-12.70572698 30.63403322 -24.01030446 32.30623915 -32.9375 40.85546875 C-39.21382601 47.61559489 -42.22936244 54.73105912 -42 64 C-40.27942717 74.33765661 -36.83928665 81.29783304 -28.3671875 87.4921875 C-20.66597268 92.39758176 -12.51789466 93.12914713 -3.50415039 93.11352539 C-2.79111755 93.11367142 -2.07808472 93.11381744 -1.34344482 93.1139679 C0.9885168 93.11327713 3.32039626 93.1055243 5.65234375 93.09765625 C7.27901669 93.0957891 8.90569019 93.0943666 10.53236389 93.09336853 C14.79515154 93.08956677 19.05790463 93.07975668 23.32067871 93.06866455 C27.67797376 93.0583999 32.03527444 93.05386012 36.39257812 93.04882812 C44.9284012 93.03813213 53.46419629 93.02108409 62 93 C62.33 92.34 62.66 91.68 63 91 C63.721875 90.87625 64.44375 90.7525 65.1875 90.625 C72.07727518 89.09393885 77.05981657 83.60021228 81 78 C83.50597289 73.03556082 84.48896233 68.54477296 84.9375 63.0625 C85.72591784 55.55228152 86.83395872 50.00773921 92.5 44.625 C100.10232516 39.68348865 107.91032399 39.84074594 116.75390625 39.90234375 C117.93339088 39.90446617 117.93339088 39.90446617 119.13670349 39.90663147 C121.61201015 39.91216328 124.08722137 39.92470225 126.5625 39.9375 C128.25585806 39.94252384 129.94921755 39.94708519 131.64257812 39.95117188 C135.7617547 39.96211022 139.88086125 39.97932638 144 40 C142.71996951 44.1071591 141.18576933 47.83496117 139.19921875 51.6484375 C138.64073242 52.72472412 138.08224609 53.80101074 137.50683594 54.90991211 C136.90645508 56.05339111 136.30607422 57.19687012 135.6875 58.375 C135.37864868 58.96459503 135.06979736 59.55419006 134.75158691 60.16165161 C133.14363214 63.23120029 131.53082552 66.29813279 129.91357422 69.36279297 C128.10317307 72.79661136 126.31928902 76.24386377 124.53515625 79.69140625 C116.21665672 95.61395551 108.01452027 107.8262267 93 118 C91.42992187 119.0828125 91.42992187 119.0828125 89.828125 120.1875 C85.53830673 122.9367758 80.65250975 124.05343146 75.8125 125.5625 C75.06291016 125.79646484 74.31332031 126.03042969 73.54101562 126.27148438 C71.69409059 126.84791321 69.84705589 127.42399063 68 128 C69.2375 127.66226563 70.475 127.32453125 71.75 126.9765625 C75.87440256 125.8509443 78.83936203 126.13320042 83 127 C82.67 126.01 82.34 125.02 82 124 C85 125 85 125 88 126 C88.99 126 89.98 126 91 126 C91.33 125.34 91.66 124.68 92 124 C92.66 124 93.32 124 94 124 C94 124.66 94 125.32 94 126 C96.47266765 125.65555119 96.47266765 125.65555119 99 125 C99.33 124.34 99.66 123.68 100 123 C101.6396875 122.2884375 101.6396875 122.2884375 103.3125 121.5625 C110.77530258 117.92438374 117.97694083 111.45956112 122.37356567 104.39016724 C128.21143512 95.13669306 128.21143512 95.13669306 132.92131805 93.21681976 C138.2703916 92.03018326 143.67882556 92.34485235 149.1171875 92.5546875 C150.86390213 92.56855661 152.61068281 92.57560039 154.35745239 92.57620239 C158.93482599 92.59322401 163.50677142 92.69014722 168.08251953 92.80828857 C175.39390402 92.98295511 182.70728835 93.0316995 190.02035904 93.08655167 C192.55201097 93.11641859 195.08115345 93.1784563 197.61203003 93.24655151 C209.93354485 93.49552323 222.1277845 92.43376299 231.54296875 83.54296875 C237.35899845 77.41100657 240.17533417 70.4304894 240.5 62 C240.10524229 52.06738666 236.17511086 44.75304552 229 38 C222.18235984 32.71285049 215.82533836 31.67631246 207.45947266 31.38549805 C206.07668593 31.3292062 206.07668593 31.3292062 204.66596413 31.27177715 C194.66164553 30.89512667 184.65869189 30.83599332 174.6484375 30.83203125 C172.68698097 30.8288044 170.72552467 30.82543936 168.7640686 30.82194519 C164.69866375 30.8160274 160.63327994 30.81409811 156.56787109 30.81469727 C151.38486458 30.81479967 146.20199264 30.8010345 141.01901817 30.78392506 C136.98677965 30.77277169 132.95457368 30.77077891 128.92232132 30.77130699 C127.01114047 30.77013628 125.09995851 30.7657663 123.18879318 30.75797462 C102.25248597 30.22817845 102.25248597 30.22817845 84.21484375 39.63671875 C77.38845841 47.10045702 76.80840842 53.54282582 76.29296875 63.39453125 C75.79881756 69.47588521 74.47290327 73.27562543 70.4375 78 C65.76057405 80.72112055 62.27976451 80.94368672 57 80 C53.49279261 79.0300472 51.31268195 77.83955194 49 75 C43.47071227 60.40416976 45.62577897 45.16729939 51.1796875 30.98828125 C58.25657697 16.64606442 70.3585248 6.30612526 85.21923828 0.80921936 C98.67594396 -3.01812793 112.23238838 -2.59919016 126.125 -2.56640625 C128.15493333 -2.56905889 130.18484943 -2.57425332 132.21477699 -2.57970566 C138.57881371 -2.59659103 144.94260999 -2.59325394 151.30664062 -2.57641602 C157.82342691 -2.55949455 164.33954325 -2.57535487 170.85625648 -2.6076389 C176.49929492 -2.63451241 182.14212712 -2.64156376 187.78522301 -2.63312382 C191.13474454 -2.62824709 194.48354578 -2.63228949 197.83306885 -2.65091133 C221.4609348 -2.76217557 241.0172385 0.24401591 259 17 C271.4309099 30.11782293 277.43459137 46.69577203 277.2109375 64.6328125 C276.20414355 80.70422707 270.9081895 95.10793459 260 107 C259.44570313 107.63421875 258.89140625 108.2684375 258.3203125 108.921875 C251.2121749 116.60818648 242.19148395 121.23275685 232.53125 124.95703125 C229.82404182 125.97583092 229.82404182 125.97583092 227 128 C228.43534841 128.2226746 229.87345525 128.42761906 231.3125 128.625 C232.11300781 128.74101563 232.91351562 128.85703125 233.73828125 128.9765625 C236.28723215 129.21533407 236.28723215 129.21533407 239 127 C242.14722175 128.14444427 245.03902035 129.45608552 247.953125 131.10546875 C250.28011584 132.12241704 251.79040571 132.17449353 254.3125 132.0625 C258.31937267 131.97053899 262.03774559 132.32716434 266 133 C267.134375 133.185625 268.26875 133.37125 269.4375 133.5625 C270.7059375 133.7790625 270.7059375 133.7790625 272 134 C272 134.99 272 135.98 272 137 C271.34 137 270.68 137 270 137 C269.67 137.66 269.34 138.32 269 139 C268.34 139.33 267.68 139.66 267 140 C264.875 139.0625 264.875 139.0625 263 138 C262.67 138.66 262.34 139.32 262 140 C254.65824558 141.84397553 247.191253 142.21071266 239.65625 141.97265625 C236.96818516 142.00032751 234.62379201 142.44964363 232 143 C229.98565646 143 227.97120494 142.99881435 225.95703125 142.97265625 C223.24465227 143.01055376 220.67226352 143.53749285 218 144 C215.89775445 144.22690037 213.79327142 144.43356623 211.6875 144.625 C210.11548828 144.76808594 210.11548828 144.76808594 208.51171875 144.9140625 C207.68285156 144.94242188 206.85398437 144.97078125 206 145 C205.67 144.67 205.34 144.34 205 144 C203.37146465 144.06420749 201.74550788 144.2012064 200.125 144.375 C199.24070312 144.46523438 198.35640625 144.55546875 197.4453125 144.6484375 C194.86893096 144.94479782 194.86893096 144.94479782 192 146 C190.36835444 145.76711489 188.7372094 145.52945076 187.11047363 145.26443481 C182.88075351 144.73446598 178.61551185 144.87947689 174.359375 144.90234375 C173.35537659 144.9037587 172.35137817 144.90517365 171.31695557 144.90663147 C168.12793926 144.91219973 164.93899482 144.92473824 161.75 144.9375 C159.59114686 144.94251984 157.4322926 144.94708189 155.2734375 144.95117188 C150.53560372 144.96097795 145.79780661 144.97516849 141.05999756 144.99327087 C139.37333921 144.99878046 137.68666734 145 136 145 C134.60155845 145.01122483 133.20312124 145.02299729 131.8046875 145.03515625 C130.16145932 145.04444752 128.5182301 145.05355551 126.875 145.0625 C125.62009766 145.07506836 125.62009766 145.07506836 124.33984375 145.08789062 C122.22637678 145.09645411 120.11283201 145.05250577 118 145 C117.67 144.67 117.34 144.34 117 144 C116.29875 144.165 115.5975 144.33 114.875 144.5 C112 145 112 145 108.91699219 144.53735352 C104.38742136 143.91596325 100.01678868 143.87467455 95.453125 143.90234375 C94.56010681 143.9037587 93.66708862 143.90517365 92.74700928 143.90663147 C89.91463764 143.91219261 87.08234738 143.92472865 84.25 143.9375 C82.33203241 143.94252086 80.41406356 143.94708274 78.49609375 143.95117188 C74.99510084 143.9593213 71.49413783 143.96997092 67.99316406 143.98413086 C65.66212178 143.9933946 63.33106069 144 61 144 C59.62381513 144.1341923 58.24893079 144.2819155 56.875 144.4375 C43.45567308 145.81687281 30.00247299 146.71081917 16.578125 145.12109375 C13.86504795 144.99366134 11.64882009 145.45478095 9 146 C7.03341848 145.74208767 5.06691958 145.48190162 3.10546875 145.1875 C0.94491368 144.99509435 -0.86220523 145.16400082 -3 145.5 C-7.93586819 146.25786952 -12.47954758 145.68120336 -17.3125 144.375 C-19.24116989 143.79455899 -19.24116989 143.79455899 -22 145 C-23.67225729 144.69595322 -25.33753959 144.35371498 -27 144 C-31.15771669 143.48627883 -35.30698483 142.97619197 -39.5 143.03515625 C-42.15105151 142.99787584 -44.41059683 142.57086266 -47 142 C-49.78797664 141.45882163 -52.58124774 140.94789705 -55.375 140.4375 C-56.46941406 140.22963867 -56.46941406 140.22963867 -57.5859375 140.01757812 C-61.12707685 139.37574662 -64.29586465 139.00029498 -67.91796875 139.00390625 C-71 139 -71 139 -72.9375 137.5 C-73.4634375 136.7575 -73.4634375 136.7575 -74 136 C-72 133 -72 133 -69.72265625 132.234375 C-68.40587891 131.99460937 -68.40587891 131.99460937 -67.0625 131.75 C-66.18722656 131.57984375 -65.31195313 131.4096875 -64.41015625 131.234375 C-62 131 -62 131 -59 132 C-58.67 131.34 -58.34 130.68 -58 130 C-57.01 130 -56.02 130 -55 130 C-53.17814121 129.55774726 -51.36614716 129.07398203 -49.5625 128.5625 C-44.10180893 127.02459109 -39.68800491 126 -34 126 C-35.10794922 125.58041016 -35.10794922 125.58041016 -36.23828125 125.15234375 C-54.02559754 118.12330263 -66.02537192 107.91502689 -74.25 90.5 C-81.29754102 73.62219791 -81.55563087 55.89779945 -75.3125 38.75 C-67.98939687 22.27992654 -55.01525436 9.2009921 -38.26953125 2.4296875 C-29.57306101 -0.77765137 -21.51049995 -2.17292579 -12.3125 -2.75 C-11.45849609 -2.81832031 -10.60449219 -2.88664062 -9.72460938 -2.95703125 C-8.90412109 -3.00730469 -8.08363281 -3.05757813 -7.23828125 -3.109375 C-6.49618408 -3.16061523 -5.75408691 -3.21185547 -4.98950195 -3.26464844 C-2.27504736 -2.90356502 -1.66459586 -2.17255674 0 0 Z M-30 127 C-26 128 -26 128 -26 128 Z M-24 128 C-24 128.33 -24 128.66 -24 129 C-21.36 129 -18.72 129 -16 129 C-16 128.67 -16 128.34 -16 128 C-18.64 128 -21.28 128 -24 128 Z M96 128 C97.485 128.99 97.485 128.99 99 130 C99.66 129.67 100.32 129.34 101 129 C99.35 128.67 97.7 128.34 96 128 Z M101 128 C104.41238523 130.27492349 105.36044265 130.19555565 109.32421875 129.9765625 C110.35224609 129.925 111.38027344 129.8734375 112.43945312 129.8203125 C114.04723633 129.72363281 114.04723633 129.72363281 115.6875 129.625 C116.77095703 129.56828125 117.85441406 129.5115625 118.97070312 129.453125 C121.64780007 129.31160446 124.32396576 129.16018849 127 129 C127 128.67 127 128.34 127 128 C118.42 128 109.84 128 101 128 Z M129 128 C129 128.33 129 128.66 129 129 C131.31 129 133.62 129 136 129 C136 128.67 136 128.34 136 128 C133.69 128 131.38 128 129 128 Z M141 128 C141 128.33 141 128.66 141 129 C143.64 129.33 146.28 129.66 149 130 C149.33 129.34 149.66 128.68 150 128 C147.03 128 144.06 128 141 128 Z M152 128 C156 129 156 129 156 129 Z M161 128 C161 128.33 161 128.66 161 129 C164.63 129 168.26 129 172 129 C172 128.67 172 128.34 172 128 C168.37 128 164.74 128 161 128 Z M207 128 C206.67 128.66 206.34 129.32 206 130 C213.92 129.505 213.92 129.505 222 129 C222 128.67 222 128.34 222 128 C217.05 128 212.1 128 207 128 Z M-72 134 C-71 136 -71 136 -71 136 Z " fill="#00B0A7" transform="translate(427,485)"/>
<path d="M0 0 C15.77491859 14.99830721 28.26127873 37.48969077 29.59106445 59.6081543 C29.87590236 74.73860793 30.09731696 89.15853412 25.4140625 103.6640625 C25.20507324 104.32051758 24.99608398 104.97697266 24.78076172 105.65332031 C19.90195992 120.52727036 12.85782193 134.76180204 5.0390625 148.2890625 C4.41402832 149.38238892 4.41402832 149.38238892 3.77636719 150.49780273 C0.78115336 155.54169888 0.78115336 155.54169888 -2.5859375 156.6640625 C-4.34686215 156.7423042 -6.11069528 156.76113549 -7.87329102 156.74584961 C-8.95614883 156.7393187 -10.03900665 156.73278778 -11.15467834 156.72605896 C-12.91696022 156.70890587 -12.91696022 156.70890587 -14.71484375 156.69140625 C-17.22070164 156.67873895 -19.7265611 156.6663796 -22.23242188 156.65429688 C-26.16826324 156.62969025 -30.10402164 156.60194427 -34.03979492 156.56811523 C-68.71200038 155.63831087 -68.71200038 155.63831087 -99.5859375 169.6640625 C-100.40320313 170.27636719 -101.22046875 170.88867188 -102.0625 171.51953125 C-113.63716461 181.35620443 -118.46908316 195.87613164 -123.5859375 209.6640625 C-126.63206051 208.141001 -127.42110952 205.25037302 -128.8359375 202.2890625 C-132.60191302 194.58560423 -136.50820061 186.96078011 -140.4609375 179.3515625 C-141.07794866 178.16051689 -141.69489187 176.96943608 -142.31176758 175.77832031 C-144.90133909 170.7875223 -147.49509485 165.8016236 -150.18359375 160.86328125 C-157.6304035 147.13772865 -163.96667523 132.91597851 -170.32765198 118.66349792 C-171.42904854 116.2011234 -172.5409253 113.75382262 -173.75024414 111.34228516 C-174.69139214 109.45229061 -175.11552842 107.72438135 -175.5859375 105.6640625 C-175.90691406 104.59542969 -176.22789062 103.52679688 -176.55859375 102.42578125 C-184.03367936 75.5743533 -180.80340225 47.07530759 -167.70800781 22.64208984 C-164.73695995 17.404616 -161.45683256 12.2818315 -157.5859375 7.6640625 C-156.9259375 7.6640625 -156.2659375 7.6640625 -155.5859375 7.6640625 C-155.32167969 7.07753906 -155.05742187 6.49101562 -154.78515625 5.88671875 C-146.09366041 -10.22227517 -123.13044555 -20.44677585 -106.5859375 -25.7109375 C-104.59111315 -26.27136464 -102.59150456 -26.81526144 -100.5859375 -27.3359375 C-99.8125 -27.54863281 -99.0390625 -27.76132812 -98.2421875 -27.98046875 C-63.14843955 -36.81748137 -26.04700041 -23.52886139 0 0 Z M-107.96484375 38.91796875 C-117.13300871 48.79307655 -121.74527986 60.17307618 -121.5859375 73.6640625 C-120.29115333 88.20548477 -114.08104003 99.42392437 -103.07421875 108.83984375 C-92.88551548 116.30942684 -80.9892343 118.65881312 -68.5859375 117.6640625 C-55.13354095 115.50628461 -44.03480613 109.17223372 -35.7265625 98.2109375 C-28.40241644 86.68084617 -26.94147399 74.47602813 -29.171875 61.16796875 C-32.58539212 48.12457536 -41.21315502 38.19697134 -52.68359375 31.42578125 C-70.90537529 21.77069469 -92.82536341 24.94027108 -107.96484375 38.91796875 Z " fill="#1368F9" transform="translate(586.5859375,320.3359375)"/>
<path d="M0 0 C1.25651362 2.17349172 2.43469799 4.33352556 3.57421875 6.56640625 C3.90291458 7.20110336 4.23161041 7.83580048 4.57026672 8.48973083 C5.26126925 9.82726486 5.94946153 11.16625401 6.63500977 12.5065918 C7.68741858 14.56234095 8.75022537 16.61245827 9.81445312 18.66210938 C10.48499847 19.96322054 11.15494143 21.26464237 11.82421875 22.56640625 C12.14291428 23.18101212 12.4616098 23.79561798 12.78996277 24.42884827 C15 28.76916274 15 28.76916274 15 31 C13.91283691 30.97643433 13.91283691 30.97643433 12.80371094 30.95239258 C9.45255651 30.88921857 6.10152803 30.85075114 2.75 30.8125 C1.61046875 30.78736328 0.4709375 30.76222656 -0.703125 30.73632812 C-12.70572698 30.63403322 -24.01030446 32.30623915 -32.9375 40.85546875 C-39.21382601 47.61559489 -42.22936244 54.73105912 -42 64 C-40.27942717 74.33765661 -36.83928665 81.29783304 -28.3671875 87.4921875 C-20.66597268 92.39758176 -12.51789466 93.12914713 -3.50415039 93.11352539 C-2.79111755 93.11367142 -2.07808472 93.11381744 -1.34344482 93.1139679 C0.9885168 93.11327713 3.32039626 93.1055243 5.65234375 93.09765625 C7.27901669 93.0957891 8.90569019 93.0943666 10.53236389 93.09336853 C14.79515154 93.08956677 19.05790463 93.07975668 23.32067871 93.06866455 C27.67797376 93.0583999 32.03527444 93.05386012 36.39257812 93.04882812 C44.9284012 93.03813213 53.46419629 93.02108409 62 93 C62.33 92.34 62.66 91.68 63 91 C63.721875 90.87625 64.44375 90.7525 65.1875 90.625 C72.07727518 89.09393885 77.05981657 83.60021228 81 78 C83.50597289 73.03556082 84.48896233 68.54477296 84.9375 63.0625 C85.72591784 55.55228152 86.83395872 50.00773921 92.5 44.625 C101.22357382 38.95467702 110.9866092 39.86191628 121.0625 39.9375 C122.21427734 39.94201172 123.36605469 39.94652344 124.55273438 39.95117188 C127.36854518 39.96285574 130.18424398 39.97923719 133 40 C133 40.66 133 41.32 133 42 C135.64 42 138.28 42 141 42 C140.32215634 45.22707477 139.16878115 47.92019054 137.69921875 50.8671875 C137.22250732 51.8247998 136.7457959 52.78241211 136.25463867 53.76904297 C135.47890503 55.3064917 135.47890503 55.3064917 134.6875 56.875 C133.88759644 58.46465576 133.88759644 58.46465576 133.0715332 60.08642578 C129.36866238 67.39879493 125.58234745 74.6630606 121.6875 81.875 C121.22110107 82.74624512 120.75470215 83.61749023 120.27416992 84.51513672 C116.92062848 90.65336267 113.10394648 96.34021161 109 102 C108.278125 103.010625 107.55625 104.02125 106.8125 105.0625 C95.54125835 118.02259219 77.80848091 125.37329486 61 127 C58.2452844 127.13155023 55.49655193 127.14699761 52.73901367 127.14526367 C51.564076 127.15030159 51.564076 127.15030159 50.36540222 127.15544128 C47.79957452 127.16486847 45.23381265 127.16689021 42.66796875 127.16796875 C40.86729405 127.17118702 39.0666196 127.17455151 37.26594543 127.17805481 C33.49947504 127.18402549 29.73302752 127.18589683 25.96655273 127.18530273 C21.16542904 127.18520122 16.3644536 127.19885128 11.56336498 127.21607494 C7.84592529 127.22725105 4.12852082 127.22922023 0.41106606 127.22869301 C-1.35776976 127.22986476 -3.12660673 127.23424076 -4.8954258 127.24202538 C-17.11369952 127.29076683 -28.63398137 127.02274267 -40 122 C-40.62132812 121.73574219 -41.24265625 121.47148438 -41.8828125 121.19921875 C-56.75699759 114.36431993 -68.13652471 102.13538082 -74.22265625 86.94921875 C-79.83162224 70.80585069 -79.90672279 53.1898287 -72.64135742 37.49462891 C-64.04592839 20.06834415 -50.94566213 9.67438653 -33.34765625 2.078125 C-30.81215671 0.98804842 -30.81215671 0.98804842 -28 -1 C-22.84647963 -2.15388958 -17.57182258 -2.42003485 -12.3125 -2.75 C-11.45849609 -2.81832031 -10.60449219 -2.88664062 -9.72460938 -2.95703125 C-8.90412109 -3.00730469 -8.08363281 -3.05757813 -7.23828125 -3.109375 C-6.49618408 -3.16061523 -5.75408691 -3.21185547 -4.98950195 -3.26464844 C-2.27504736 -2.90356502 -1.66459586 -2.17255674 0 0 Z " fill="#1051EF" transform="translate(427,485)"/>
<path d="M0 0 C1.02435654 -0.00997513 2.04871307 -0.01995026 3.10411072 -0.03022766 C4.22767975 -0.03089233 5.35124878 -0.03155701 6.50886536 -0.03224182 C8.28513557 -0.0447271 8.28513557 -0.0447271 10.09729004 -0.0574646 C13.3501808 -0.07746403 16.60292308 -0.0882136 19.85586715 -0.09329104 C21.89444507 -0.09693836 23.93299856 -0.10318099 25.97156715 -0.11029243 C33.10282592 -0.13481388 40.23401192 -0.14784039 47.36531067 -0.15138245 C53.97778049 -0.15499892 60.58978076 -0.18475009 67.20210761 -0.22678703 C72.90005138 -0.26171994 78.59784169 -0.27693498 84.29589158 -0.27762848 C87.68915821 -0.27841487 91.0819488 -0.28685008 94.47510338 -0.31562614 C118.28265295 -0.48557283 137.90786448 2.37956176 156.03938293 19.27415466 C168.47029284 32.39197759 174.47397431 48.96992669 174.25032043 66.90696716 C173.24352648 82.97838174 167.94757243 97.38208925 157.03938293 109.27415466 C156.48508606 109.90837341 155.93078918 110.54259216 155.35969543 111.19602966 C148.25155783 118.88234114 139.23086688 123.50691151 129.57063293 127.23118591 C126.86342475 128.24998558 126.86342475 128.24998558 124.03938293 130.27415466 C125.47473134 130.49682926 126.91283818 130.70177372 128.35188293 130.89915466 C129.15239075 131.01517029 129.95289856 131.13118591 130.77766418 131.25071716 C133.32661509 131.48948873 133.32661509 131.48948873 136.03938293 129.27415466 C139.18660469 130.41859894 142.07840328 131.73024018 144.99250793 133.37962341 C147.31949877 134.3965717 148.82978865 134.44864819 151.35188293 134.33665466 C155.35875561 134.24469365 159.07712852 134.60131901 163.03938293 135.27415466 C164.17375793 135.45977966 165.30813293 135.64540466 166.47688293 135.83665466 C167.74532043 136.05321716 167.74532043 136.05321716 169.03938293 136.27415466 C169.03938293 137.26415466 169.03938293 138.25415466 169.03938293 139.27415466 C168.37938293 139.27415466 167.71938293 139.27415466 167.03938293 139.27415466 C166.70938293 139.93415466 166.37938293 140.59415466 166.03938293 141.27415466 C165.37938293 141.60415466 164.71938293 141.93415466 164.03938293 142.27415466 C161.91438293 141.33665466 161.91438293 141.33665466 160.03938293 140.27415466 C159.70938293 140.93415466 159.37938293 141.59415466 159.03938293 142.27415466 C151.69762852 144.11813019 144.23063594 144.48486733 136.69563293 144.24681091 C134.00756809 144.27448217 131.66317494 144.72379829 129.03938293 145.27415466 C127.0250394 145.27415466 125.01058787 145.27296901 122.99641418 145.24681091 C120.2840352 145.28470842 117.71164645 145.81164752 115.03938293 146.27415466 C112.93713738 146.50105503 110.83265435 146.7077209 108.72688293 146.89915466 C107.15487122 147.0422406 107.15487122 147.0422406 105.55110168 147.18821716 C104.7222345 147.21657654 103.89336731 147.24493591 103.03938293 147.27415466 C102.70938293 146.94415466 102.37938293 146.61415466 102.03938293 146.27415466 C100.41084758 146.33836215 98.78489081 146.47536106 97.16438293 146.64915466 C96.28008606 146.73938904 95.39578918 146.82962341 94.48469543 146.92259216 C91.9083139 147.21895249 91.9083139 147.21895249 89.03938293 148.27415466 C87.40773738 148.04126955 85.77659233 147.80360542 84.14985657 147.53858948 C79.92013645 147.00862064 75.65489479 147.15363155 71.39875793 147.17649841 C70.39475952 147.17791336 69.39076111 147.17932831 68.3563385 147.18078613 C65.16732219 147.18635439 61.97837775 147.1988929 58.78938293 147.21165466 C56.63052979 147.2166745 54.47167554 147.22123656 52.31282043 147.22532654 C47.57498666 147.23513261 42.83718955 147.24932315 38.09938049 147.26742554 C36.41272215 147.27293512 34.72605028 147.27415466 33.03938293 147.27415466 C31.64094138 147.2853795 30.24250418 147.29715196 28.84407043 147.30931091 C27.20084226 147.31860219 25.55761304 147.32771018 23.91438293 147.33665466 C22.65948059 147.34922302 22.65948059 147.34922302 21.37922668 147.36204529 C19.26575972 147.37060877 17.15221494 147.32666043 15.03938293 147.27415466 C14.70938293 146.94415466 14.37938293 146.61415466 14.03938293 146.27415466 C13.33813293 146.43915466 12.63688293 146.60415466 11.91438293 146.77415466 C9.03938293 147.27415466 9.03938293 147.27415466 5.95637512 146.81150818 C1.4268043 146.19011792 -2.94382839 146.14882921 -7.50749207 146.17649841 C-8.40051025 146.17791336 -9.29352844 146.17932831 -10.21360779 146.18078613 C-13.04597943 146.18634727 -15.87826969 146.19888332 -18.71061707 146.21165466 C-20.62858466 146.21667552 -22.54655351 146.2212374 -24.46452332 146.22532654 C-27.96551622 146.23347596 -31.46647924 146.24412558 -34.967453 146.25828552 C-37.29849528 146.26754926 -39.62955638 146.27415466 -41.96061707 146.27415466 C-43.33680193 146.40834696 -44.71168627 146.55607017 -46.08561707 146.71165466 C-59.50494398 148.09102747 -72.95814408 148.98497383 -86.38249207 147.39524841 C-89.09556911 147.26781601 -91.31179698 147.72893562 -93.96061707 148.27415466 C-95.92719859 148.01624233 -97.89369749 147.75605629 -99.85514832 147.46165466 C-102.01570339 147.26924902 -103.82282229 147.43815548 -105.96061707 147.77415466 C-110.89648525 148.53202419 -115.44016465 147.95535802 -120.27311707 146.64915466 C-122.20178695 146.06871365 -122.20178695 146.06871365 -124.96061707 147.27415466 C-126.63287436 146.97010788 -128.29815666 146.62786964 -129.96061707 146.27415466 C-134.11833376 145.76043349 -138.26760189 145.25034664 -142.46061707 145.30931091 C-145.11166857 145.2720305 -147.37121389 144.84501732 -149.96061707 144.27415466 C-152.7485937 143.73297629 -155.5418648 143.22205171 -158.33561707 142.71165466 C-159.43003113 142.50379333 -159.43003113 142.50379333 -160.54655457 142.29173279 C-164.08769391 141.64990128 -167.25648171 141.27444964 -170.87858582 141.27806091 C-173.96061707 141.27415466 -173.96061707 141.27415466 -175.89811707 139.77415466 C-176.42405457 139.03165466 -176.42405457 139.03165466 -176.96061707 138.27415466 C-174.96061707 135.27415466 -174.96061707 135.27415466 -172.68327332 134.50852966 C-171.36649597 134.26876404 -171.36649597 134.26876404 -170.02311707 134.02415466 C-169.14784363 133.85399841 -168.27257019 133.68384216 -167.37077332 133.50852966 C-164.96061707 133.27415466 -164.96061707 133.27415466 -161.96061707 134.27415466 C-161.63061707 133.61415466 -161.30061707 132.95415466 -160.96061707 132.27415466 C-159.97061707 132.27415466 -158.98061707 132.27415466 -157.96061707 132.27415466 C-156.13875827 131.83190192 -154.32676423 131.34813669 -152.52311707 130.83665466 C-147.062426 129.29874575 -142.64862197 128.27415466 -136.96061707 128.27415466 C-138.06856628 127.85456482 -138.06856628 127.85456482 -139.19889832 127.42649841 C-156.9862146 120.39745729 -168.98598898 110.18918155 -177.21061707 92.77415466 C-184.25815808 75.89635257 -184.51624793 58.17195411 -178.27311707 41.02415466 C-170.29022425 23.07017686 -156.05765384 10.36681753 -137.96061707 3.27415466 C-135.02311707 3.08665466 -135.02311707 3.08665466 -132.96061707 3.27415466 C-135.69569505 5.09753999 -138.44290181 6.4838903 -141.40641785 7.88768005 C-158.34559993 15.98214734 -170.12648452 27.52898405 -177.10124207 45.15696716 C-177.8382406 47.51969776 -178.44915292 49.85351831 -178.96061707 52.27415466 C-179.18749207 53.34665466 -179.41436707 54.41915466 -179.64811707 55.52415466 C-181.22564024 74.45443272 -178.00169525 91.14627466 -165.96061707 106.27415466 C-164.80239441 107.75722107 -164.80239441 107.75722107 -163.62077332 109.27024841 C-156.41450397 117.83431917 -146.51206768 122.38560152 -135.96061707 125.27415466 C-134.9796405 125.61575623 -133.99866394 125.95735779 -132.98796082 126.30931091 C-127.32723293 128.11343967 -121.84724313 128.42310247 -115.94255066 128.41941833 C-115.16115723 128.42277695 -114.37976379 128.42613556 -113.57469177 128.42959595 C-111.00279631 128.43905898 -108.43096634 128.44104705 -105.85905457 128.44212341 C-104.05791701 128.44534038 -102.25677972 128.44870478 -100.4556427 128.45220947 C-96.68141576 128.45818997 -92.90721168 128.4600506 -89.13298035 128.4594574 C-84.32517152 128.4593561 -79.51751146 128.47297923 -74.70973778 128.49022961 C-70.98796431 128.50141792 -67.26622596 128.50337448 -63.54443741 128.50284767 C-61.77363703 128.50401863 -60.00283548 128.50839006 -58.23205185 128.51618004 C-36.61339024 128.6023456 -15.18214872 125.12701515 1.03938293 109.27415466 C8.20755216 101.50478415 13.12446703 92.54297407 18.03938293 83.27415466 C18.5145636 82.37873962 18.98974426 81.48332458 19.47932434 80.56077576 C25.83197363 68.54860498 32.02620354 56.45968585 38.03938293 44.27415466 C35.39938293 44.27415466 32.75938293 44.27415466 30.03938293 44.27415466 C30.03938293 43.94415466 30.03938293 43.61415466 30.03938293 43.27415466 C33.66938293 42.94415466 37.29938293 42.61415466 41.03938293 42.27415466 C39.75935244 46.38131376 38.22515227 50.10911583 36.23860168 53.92259216 C35.68011536 54.99887878 35.12162903 56.07516541 34.54621887 57.18406677 C33.94583801 58.32754578 33.34545715 59.47102478 32.72688293 60.64915466 C32.41803162 61.23874969 32.1091803 61.82834473 31.79096985 62.43580627 C30.18301507 65.50535495 28.57020846 68.57228745 26.95295715 71.63694763 C25.14255601 75.07076602 23.35867196 78.51801843 21.57453918 81.96556091 C13.25603965 97.88811018 5.0539032 110.10038137 -9.96061707 120.27415466 C-11.53069519 121.35696716 -11.53069519 121.35696716 -13.13249207 122.46165466 C-17.42231034 125.21093046 -22.30810731 126.32758612 -27.14811707 127.83665466 C-27.89770691 128.07061951 -28.64729675 128.30458435 -29.41960144 128.54563904 C-31.26652647 129.12206787 -33.11356117 129.69814529 -34.96061707 130.27415466 C-33.72311707 129.93642029 -32.48561707 129.59868591 -31.21061707 129.25071716 C-27.0862145 128.12509896 -24.12125503 128.40735509 -19.96061707 129.27415466 C-20.29061707 128.28415466 -20.62061707 127.29415466 -20.96061707 126.27415466 C-18.96061707 126.94082133 -16.96061707 127.607488 -14.96061707 128.27415466 C-13.97061707 128.27415466 -12.98061707 128.27415466 -11.96061707 128.27415466 C-11.63061707 127.61415466 -11.30061707 126.95415466 -10.96061707 126.27415466 C-10.30061707 126.27415466 -9.64061707 126.27415466 -8.96061707 126.27415466 C-8.96061707 126.93415466 -8.96061707 127.59415466 -8.96061707 128.27415466 C-6.48794942 127.92970585 -6.48794942 127.92970585 -3.96061707 127.27415466 C-3.63061707 126.61415466 -3.30061707 125.95415466 -2.96061707 125.27415466 C-1.32092957 124.56259216 -1.32092957 124.56259216 0.35188293 123.83665466 C7.79548373 120.20789927 15.04317544 113.74925226 19.38150024 106.66157532 C25.14704443 97.40288805 25.14704443 97.40288805 30.03370285 95.4958725 C35.66000421 94.3192085 41.34406973 94.664693 47.05110168 94.90696716 C48.87376245 94.93312592 50.69652263 94.95303223 52.51931763 94.96699524 C57.28463892 95.0200963 62.04384899 95.157254 66.80677795 95.31285095 C71.6796958 95.45687005 76.5536158 95.52017486 81.42805481 95.59056091 C90.96782905 95.74007196 100.50309523 95.97853525 110.03938293 96.27415466 C110.03938293 96.60415466 110.03938293 96.93415466 110.03938293 97.27415466 C82.97938293 97.60415466 55.91938293 97.93415466 28.03938293 98.27415466 C27.37938293 99.92415466 26.71938293 101.57415466 26.03938293 103.27415466 C19.69380312 112.20009474 12.51826528 119.16821077 3.28157043 124.97727966 C2.29785461 125.59764099 1.31413879 126.21800232 0.3006134 126.85716248 C-0.44559265 127.3247699 -1.19179871 127.79237732 -1.96061707 128.27415466 C12.67860113 128.32104724 27.31780927 128.35622756 41.95708752 128.37777901 C48.75562246 128.38805537 55.55411052 128.40204534 62.35261536 128.42503357 C68.92081842 128.44723232 75.48899119 128.45874369 82.05723 128.46390915 C84.5556801 128.46758755 87.05412772 128.4747703 89.55255699 128.48561478 C114.1321573 128.58800241 134.38160431 127.00692035 153.57453918 110.03196716 C166.15369915 97.21546456 171.51926503 80.27545276 171.39582825 62.6938324 C170.96384896 46.0798465 164.41486958 31.38159767 153.03938293 19.27415466 C132.72758524 2.67028245 111.17820153 1.82788541 85.98469543 1.98118591 C83.26943709 1.98847244 80.55417912 1.99120381 77.83891296 1.99404907 C71.4573466 2.00331293 65.07593742 2.02784853 58.69443977 2.05809754 C51.41978973 2.09181966 44.14513155 2.10817197 36.8704226 2.12318385 C21.92665567 2.15440435 6.98303514 2.20705254 -7.96061707 2.27415466 C-4.70083273 0.10096511 -3.77247748 0.01969299 0 0 Z M-132.96061707 129.27415466 C-128.96061707 130.27415466 -128.96061707 130.27415466 -128.96061707 130.27415466 Z M-126.96061707 130.27415466 C-126.96061707 130.60415466 -126.96061707 130.93415466 -126.96061707 131.27415466 C-124.32061707 131.27415466 -121.68061707 131.27415466 -118.96061707 131.27415466 C-118.96061707 130.94415466 -118.96061707 130.61415466 -118.96061707 130.27415466 C-121.60061707 130.27415466 -124.24061707 130.27415466 -126.96061707 130.27415466 Z M-6.96061707 130.27415466 C-5.47561707 131.26415466 -5.47561707 131.26415466 -3.96061707 132.27415466 C-3.30061707 131.94415466 -2.64061707 131.61415466 -1.96061707 131.27415466 C-3.61061707 130.94415466 -5.26061707 130.61415466 -6.96061707 130.27415466 Z M-1.96061707 130.27415466 C1.45176816 132.54907815 2.39982559 132.46971032 6.36360168 132.25071716 C7.39162903 132.19915466 8.41965637 132.14759216 9.47883606 132.09446716 C11.08661926 131.99778748 11.08661926 131.99778748 12.72688293 131.89915466 C13.81033997 131.84243591 14.893797 131.78571716 16.01008606 131.72727966 C18.687183 131.58575912 21.3633487 131.43434316 24.03938293 131.27415466 C24.03938293 130.94415466 24.03938293 130.61415466 24.03938293 130.27415466 C15.45938293 130.27415466 6.87938293 130.27415466 -1.96061707 130.27415466 Z M26.03938293 130.27415466 C26.03938293 130.60415466 26.03938293 130.93415466 26.03938293 131.27415466 C28.34938293 131.27415466 30.65938293 131.27415466 33.03938293 131.27415466 C33.03938293 130.94415466 33.03938293 130.61415466 33.03938293 130.27415466 C30.72938293 130.27415466 28.41938293 130.27415466 26.03938293 130.27415466 Z M38.03938293 130.27415466 C38.03938293 130.60415466 38.03938293 130.93415466 38.03938293 131.27415466 C40.67938293 131.60415466 43.31938293 131.93415466 46.03938293 132.27415466 C46.36938293 131.61415466 46.69938293 130.95415466 47.03938293 130.27415466 C44.06938293 130.27415466 41.09938293 130.27415466 38.03938293 130.27415466 Z M49.03938293 130.27415466 C53.03938293 131.27415466 53.03938293 131.27415466 53.03938293 131.27415466 Z M58.03938293 130.27415466 C58.03938293 130.60415466 58.03938293 130.93415466 58.03938293 131.27415466 C61.66938293 131.27415466 65.29938293 131.27415466 69.03938293 131.27415466 C69.03938293 130.94415466 69.03938293 130.61415466 69.03938293 130.27415466 C65.40938293 130.27415466 61.77938293 130.27415466 58.03938293 130.27415466 Z M104.03938293 130.27415466 C103.70938293 130.93415466 103.37938293 131.59415466 103.03938293 132.27415466 C110.95938293 131.77915466 110.95938293 131.77915466 119.03938293 131.27415466 C119.03938293 130.94415466 119.03938293 130.61415466 119.03938293 130.27415466 C114.08938293 130.27415466 109.13938293 130.27415466 104.03938293 130.27415466 Z M-174.96061707 136.27415466 C-173.96061707 138.27415466 -173.96061707 138.27415466 -173.96061707 138.27415466 Z " fill="#216FA6" transform="translate(529.9606170654297,482.72584533691406)"/>
<path d="M0 0 C1.02435654 -0.00997513 2.04871307 -0.01995026 3.10411072 -0.03022766 C4.22767975 -0.03089233 5.35124878 -0.03155701 6.50886536 -0.03224182 C8.28513557 -0.0447271 8.28513557 -0.0447271 10.09729004 -0.0574646 C13.3501808 -0.07746403 16.60292308 -0.0882136 19.85586715 -0.09329104 C21.89444507 -0.09693836 23.93299856 -0.10318099 25.97156715 -0.11029243 C33.10282592 -0.13481388 40.23401192 -0.14784039 47.36531067 -0.15138245 C53.97778049 -0.15499892 60.58978076 -0.18475009 67.20210761 -0.22678703 C72.90005138 -0.26171994 78.59784169 -0.27693498 84.29589158 -0.27762848 C87.68915821 -0.27841487 91.0819488 -0.28685008 94.47510338 -0.31562614 C118.28265295 -0.48557283 137.90786448 2.37956176 156.03938293 19.27415466 C168.47029284 32.39197759 174.47397431 48.96992669 174.25032043 66.90696716 C173.24352648 82.97838174 167.94757243 97.38208925 157.03938293 109.27415466 C156.20793762 110.22548279 156.20793762 110.22548279 155.35969543 111.19602966 C142.29629282 125.32200569 124.10070791 130.30912717 105.5771904 131.18177032 C96.54616327 131.5105287 87.50064036 131.41621023 78.46516418 131.40696716 C76.12346385 131.40764218 73.78176358 131.40861385 71.44006348 131.40986633 C66.56634342 131.41133078 61.69264184 131.4092272 56.81892395 131.40452576 C50.57363341 131.39879416 44.32838553 131.40213694 38.0830965 131.40809822 C33.26274289 131.41170806 28.44239944 131.41056389 23.62204552 131.40797043 C21.31794924 131.40730414 19.01385204 131.40811918 16.70975685 131.41044998 C13.50100365 131.4129872 10.29232037 131.4091223 7.08357239 131.40354919 C6.1355072 131.40557343 5.18744202 131.40759766 4.21064758 131.40968323 C0.02657397 131.39620942 -3.88286625 131.34554506 -7.96061707 130.27415466 C-7.30061707 129.28415466 -6.64061707 128.29415466 -5.96061707 127.27415466 C-5.30061707 127.27415466 -4.64061707 127.27415466 -3.96061707 127.27415466 C-3.46561707 126.28415466 -3.46561707 126.28415466 -2.96061707 125.27415466 C-1.86749207 124.79977966 -0.77436707 124.32540466 0.35188293 123.83665466 C7.79548373 120.20789927 15.04317544 113.74925226 19.38150024 106.66157532 C25.14704443 97.40288805 25.14704443 97.40288805 30.03370285 95.4958725 C35.66000421 94.3192085 41.34406973 94.664693 47.05110168 94.90696716 C48.87376245 94.93312592 50.69652263 94.95303223 52.51931763 94.96699524 C57.28463892 95.0200963 62.04384899 95.157254 66.80677795 95.31285095 C71.6796958 95.45687005 76.5536158 95.52017486 81.42805481 95.59056091 C90.96782905 95.74007196 100.50309523 95.97853525 110.03938293 96.27415466 C110.03938293 96.60415466 110.03938293 96.93415466 110.03938293 97.27415466 C82.97938293 97.60415466 55.91938293 97.93415466 28.03938293 98.27415466 C27.37938293 99.92415466 26.71938293 101.57415466 26.03938293 103.27415466 C19.69380312 112.20009474 12.51826528 119.16821077 3.28157043 124.97727966 C2.29785461 125.59764099 1.31413879 126.21800232 0.3006134 126.85716248 C-0.44559265 127.3247699 -1.19179871 127.79237732 -1.96061707 128.27415466 C12.67860113 128.32104724 27.31780927 128.35622756 41.95708752 128.37777901 C48.75562246 128.38805537 55.55411052 128.40204534 62.35261536 128.42503357 C68.92081842 128.44723232 75.48899119 128.45874369 82.05723 128.46390915 C84.5556801 128.46758755 87.05412772 128.4747703 89.55255699 128.48561478 C114.1321573 128.58800241 134.38160431 127.00692035 153.57453918 110.03196716 C166.15369915 97.21546456 171.51926503 80.27545276 171.39582825 62.6938324 C170.96384896 46.0798465 164.41486958 31.38159767 153.03938293 19.27415466 C132.72758524 2.67028245 111.17820153 1.82788541 85.98469543 1.98118591 C83.26943709 1.98847244 80.55417912 1.99120381 77.83891296 1.99404907 C71.4573466 2.00331293 65.07593742 2.02784853 58.69443977 2.05809754 C51.41978973 2.09181966 44.14513155 2.10817197 36.8704226 2.12318385 C21.92665567 2.15440435 6.98303514 2.20705254 -7.96061707 2.27415466 C-4.70083273 0.10096511 -3.77247748 0.01969299 0 0 Z " fill="#096869" transform="translate(529.9606170654297,482.72584533691406)"/>
<path d="M0 0 C-2.73507798 1.82338532 -5.48228474 3.20973564 -8.44580078 4.61352539 C-25.38498286 12.70799268 -37.16586745 24.25482939 -44.140625 41.8828125 C-44.87762353 44.24554309 -45.48853585 46.57936365 -46 49 C-46.226875 50.0725 -46.45375 51.145 -46.6875 52.25 C-48.26502317 71.18027806 -45.04107818 87.87211999 -33 103 C-31.84177734 104.48306641 -31.84177734 104.48306641 -30.66015625 105.99609375 C-23.4538869 114.56016451 -13.55145062 119.11144685 -3 122 C-2.01902344 122.34160156 -1.03804688 122.68320312 -0.02734375 123.03515625 C5.63338414 124.83928501 11.11337394 125.14894781 17.01806641 125.14526367 C17.79945984 125.14862228 18.58085327 125.1519809 19.38592529 125.15544128 C21.95782076 125.16490432 24.52965073 125.16689238 27.1015625 125.16796875 C28.90270005 125.17118571 30.70383735 125.17455011 32.50497437 125.17805481 C36.2792013 125.18403531 40.05340538 125.18589593 43.82763672 125.18530273 C48.63544554 125.18520144 53.4431056 125.19882456 58.25087929 125.21607494 C61.97265275 125.22726326 65.6943911 125.22921982 69.41617966 125.22869301 C71.18698003 125.22986397 72.95778159 125.2342354 74.72856522 125.24202538 C96.34722682 125.32819094 117.77846834 121.85286048 134 106 C141.16816922 98.23062949 146.0850841 89.26881941 151 80 C151.47518066 79.10458496 151.95036133 78.20916992 152.43994141 77.28662109 C158.7925907 65.27445032 164.98682061 53.18553118 171 41 C168.36 41 165.72 41 163 41 C163 40.67 163 40.34 163 40 C166.63 39.67 170.26 39.34 174 39 C172.71996951 43.1071591 171.18576933 46.83496117 169.19921875 50.6484375 C168.64073242 51.72472412 168.08224609 52.80101074 167.50683594 53.90991211 C166.90645508 55.05339111 166.30607422 56.19687012 165.6875 57.375 C165.37864868 57.96459503 165.06979736 58.55419006 164.75158691 59.16165161 C163.14363214 62.23120029 161.53082552 65.29813279 159.91357422 68.36279297 C158.10317307 71.79661136 156.31928902 75.24386377 154.53515625 78.69140625 C146.21665672 94.61395551 138.01452027 106.8262267 123 117 C121.42992187 118.0828125 121.42992187 118.0828125 119.828125 119.1875 C117 121 117 121 114 122 C112.91981094 122.38586777 111.83962189 122.77173553 110.72669983 123.16929626 C99.04385027 127.12467189 88.25313174 127.72378651 75.99609375 127.62890625 C74.01847707 127.62973789 72.04086048 127.63220833 70.06324768 127.63621521 C65.94763016 127.63905081 61.83256358 127.6245921 57.71704102 127.59692383 C52.48707424 127.56282287 47.25808923 127.56888868 42.02807522 127.5875864 C37.95351726 127.59824021 33.87918106 127.58914352 29.80464363 127.57420158 C27.8780693 127.56908209 25.9514712 127.56942415 24.02490044 127.57574654 C2.49338801 127.61991172 -15.72136116 123.71051176 -31.81640625 108.35546875 C-43.77753925 95.45285123 -50.3117099 78.68156178 -50.10473633 61.0637207 C-49.15552464 42.36048892 -41.28124679 26.26171567 -27.78125 13.32421875 C-20.51896547 7.25531525 -9.84269136 -0.89479012 0 0 Z " fill="#1634B7" transform="translate(397,486)"/>
<path d="M0 0 C-2.96179445 1.97452963 -5.47096368 2.94660372 -8.8125 4.125 C-33.17444538 13.41603017 -53.96997031 31.50738869 -65.08203125 55.28515625 C-65.71208592 56.7267714 -66.33094912 58.17333918 -66.9375 59.625 C-67.20771973 60.26832275 -67.47793945 60.91164551 -67.75634766 61.57446289 C-72.99746126 74.92951077 -73.38752652 87.68358294 -73.1875 101.8125 C-73.17241725 103.68032768 -73.15873524 105.54816722 -73.14648438 107.41601562 C-73.1137831 111.9443089 -73.06220191 116.47201982 -73 121 C-72.01 121.33 -71.02 121.66 -70 122 C-69.98654541 122.57540527 -69.97309082 123.15081055 -69.95922852 123.74365234 C-69.51446501 131.42703697 -67.03563976 137.64093574 -63.9375 144.625 C-63.44016357 145.77073486 -62.94282715 146.91646973 -62.43041992 148.09692383 C-58.57988707 156.88724829 -54.50168748 165.525556 -50 174 C-49.67435059 174.61311035 -49.34870117 175.2262207 -49.01318359 175.85791016 C-47.67791635 178.36503554 -46.3390409 180.87015306 -44.99267578 183.37133789 C-42.29925698 188.38827232 -39.74995632 193.4684106 -37.22412109 198.57128906 C-32.99528188 207.07845171 -28.5432587 215.47025843 -24.10986328 223.87207031 C-23.05016547 225.90381825 -22.01825054 227.94721622 -21 230 C-20.68289063 229.09121094 -20.36578125 228.18242188 -20.0390625 227.24609375 C-15.84187604 215.75702825 -10.08262604 204.43386703 -1 196 C-0.34 196.33 0.32 196.66 1 197 C0.443125 197.6084375 -0.11375 198.216875 -0.6875 198.84375 C-9.5252431 208.99521167 -15.95676451 220.81264622 -19 234 C-19.99 234 -20.98 234 -22 234 C-22.41507812 233.15824219 -22.83015625 232.31648437 -23.2578125 231.44921875 C-27.70234995 222.47949199 -32.26690214 213.57423565 -36.875 204.6875 C-37.17989349 204.09869049 -37.48478699 203.50988098 -37.79891968 202.90322876 C-40.69354102 197.31432205 -43.58810311 191.72728639 -46.59765625 186.19921875 C-54.044466 172.47366615 -60.38073773 158.25191601 -66.74171448 143.99943542 C-67.84311104 141.5370609 -68.9549878 139.08976012 -70.16430664 136.67822266 C-71.10545464 134.78822811 -71.52959092 133.06031885 -72 131 C-72.32097656 129.93136719 -72.64195312 128.86273438 -72.97265625 127.76171875 C-80.44774186 100.9102908 -77.21746475 72.41124509 -64.12207031 47.97802734 C-61.15102245 42.7405535 -57.87089506 37.617769 -54 33 C-53.34 33 -52.68 33 -52 33 C-51.73574219 32.41347656 -51.47148437 31.82695312 -51.19921875 31.22265625 C-43.46217144 16.88265652 -24.26468662 8.04204879 -10 2 C-9.07058594 1.60167969 -8.14117187 1.20335937 -7.18359375 0.79296875 C-4.67467774 -0.11814028 -2.64893171 -0.15136753 0 0 Z " fill="#184FD2" transform="translate(483,295)"/>
<path d="M0 0 C-2.79408323 1.86272215 -4.91111575 2.71616459 -8.0625 3.75 C-23.33057735 9.20863979 -33.487136 18.58965358 -40.51171875 33.12890625 C-45.18616846 43.83058337 -47.71172086 58.31699034 -43.75 69.75 C-41.53752889 73.98504406 -41.53752889 73.98504406 -38 77 C-33.26582261 78.38230752 -30.06238936 78.50222042 -25.5625 76.375 C-21.87000924 72.95269149 -21.09951426 70.33633441 -20.7265625 65.328125 C-20.69038932 63.96880973 -20.65662205 62.60942876 -20.625 61.25 C-20.13096255 50.50286029 -16.89673169 43.36599412 -9 36 C-0.6840629 29.43390938 7.9200135 28.70044902 18.18945312 28.77294922 C19.8298053 28.77251114 19.8298053 28.77251114 21.5032959 28.77206421 C25.09602969 28.77345078 28.68855271 28.78898044 32.28125 28.8046875 C34.78088264 28.80842002 37.28051674 28.81126586 39.78015137 28.81326294 C45.67313809 28.82010316 51.56604774 28.83584506 57.45900297 28.85596192 C64.83203029 28.88058069 72.20506706 28.89126706 79.578125 28.90234375 C92.71878796 28.92376067 105.85938922 28.95748686 119 29 C119 29.33 119 29.66 119 30 C107.27484074 30.85638579 95.62552003 31.11860917 83.87117386 31.04459953 C80.95995835 31.02686178 78.04880015 31.01680427 75.13754272 31.00868225 C66.87435519 30.98451686 58.61124662 30.94858866 50.34814453 30.90405273 C45.25812655 30.87714512 40.16815137 30.86018991 35.07807541 30.84918404 C33.15571874 30.84302231 31.23336998 30.83307852 29.31105423 30.81910515 C8.31250943 30.21305108 8.31250943 30.21305108 -9.78515625 39.63671875 C-16.61154159 47.10045702 -17.19159158 53.54282582 -17.70703125 63.39453125 C-18.20118244 69.47588521 -19.52709673 73.27562543 -23.5625 78 C-28.23942595 80.72112055 -31.72023549 80.94368672 -37 80 C-40.50720739 79.0300472 -42.68731805 77.83955194 -45 75 C-50.52928773 60.40416976 -48.37422103 45.16729939 -42.8203125 30.98828125 C-35.77088858 16.70172686 -23.60478122 6.34471687 -8.796875 0.80078125 C-5.74564662 -0.07282464 -3.15788781 -0.15037561 0 0 Z " fill="#0B5F71" transform="translate(521,485)"/>
<path d="M0 0 C0.33 0.66 0.66 1.32 1 2 C0.01116466 4.28775037 -1.03773127 6.44146405 -2.19921875 8.640625 C-2.54547302 9.31106339 -2.89172729 9.98150177 -3.24847412 10.67225647 C-4.3863437 12.86936224 -5.53617926 15.0599164 -6.6875 17.25 C-7.47496376 18.7579141 -8.26215341 20.26597138 -9.04907227 21.77416992 C-10.62391577 24.78726554 -12.20499988 27.79697027 -13.79101562 30.80419922 C-15.69478362 34.41443821 -17.57551599 38.03623562 -19.453125 41.66015625 C-27.4054158 56.84203325 -35.63800782 68.26837688 -50 78 C-51.57007813 79.0828125 -51.57007813 79.0828125 -53.171875 80.1875 C-56 82 -56 82 -59 83 C-60.0812767 83.38749924 -61.16255341 83.77499847 -62.27659607 84.17424011 C-73.95213356 88.13720069 -84.66332883 88.66387772 -96.91015625 88.48828125 C-98.8588316 88.47892753 -100.8075189 88.47182357 -102.75621033 88.46684265 C-107.82473624 88.44797393 -112.89251771 88.39905297 -117.96075439 88.34332275 C-123.1566766 88.29168969 -128.35272198 88.26923561 -133.54882812 88.24414062 C-143.69954147 88.1909096 -153.84970825 88.10584872 -164 88 C-164 87.67 -164 87.34 -164 87 C-162.49901764 86.98786972 -162.49901764 86.98786972 -160.9677124 86.97549438 C-151.49414516 86.89769338 -142.02071555 86.80987122 -132.54732895 86.71247292 C-127.67806545 86.66272649 -122.80882141 86.61639619 -117.93945312 86.578125 C-113.23201238 86.54099659 -108.52474353 86.49456553 -103.81745148 86.44193649 C-102.02994073 86.4235378 -100.24239335 86.40837751 -98.45482635 86.39665604 C-76.78077021 86.24957072 -55.28145861 82.91142546 -39 67 C-31.83183078 59.23062949 -26.9149159 50.26881941 -22 41 C-21.52481934 40.10458496 -21.04963867 39.20916992 -20.56005859 38.28662109 C-14.2074093 26.27445032 -8.01317939 14.18553118 -2 2 C-4.64 2 -7.28 2 -10 2 C-10 1.67 -10 1.34 -10 1 C-5.05 0.505 -5.05 0.505 0 0 Z " fill="#0B3BA3" transform="translate(570,525)"/>
<path d="M0 0 C1.82266077 0.02615876 3.64542095 0.04606507 5.46821594 0.06002808 C10.23353723 0.11312914 14.99274731 0.25028683 19.75567627 0.40588379 C24.62859412 0.54990289 29.50251412 0.6132077 34.37695312 0.68359375 C43.91672737 0.8331048 53.45199354 1.07156809 62.98828125 1.3671875 C62.98828125 1.6971875 62.98828125 2.0271875 62.98828125 2.3671875 C35.92828125 2.6971875 8.86828125 3.0271875 -19.01171875 3.3671875 C-19.67171875 5.0171875 -20.33171875 6.6671875 -21.01171875 8.3671875 C-28.87898215 19.43358705 -37.47588931 26.02620513 -49.01171875 33.3671875 C8.90328125 33.8621875 8.90328125 33.8621875 67.98828125 34.3671875 C67.98828125 34.6971875 67.98828125 35.0271875 67.98828125 35.3671875 C60.29845681 36.10325021 52.69842586 36.51321108 44.97485352 36.49658203 C43.43345451 36.49921051 43.43345451 36.49921051 41.86091614 36.50189209 C38.50882208 36.50624676 35.15678196 36.50339689 31.8046875 36.5 C29.4572702 36.50067451 27.10985297 36.50164577 24.76243591 36.50289917 C19.86481048 36.50436717 14.96720337 36.5022492 10.06958008 36.49755859 C3.79278652 36.4918397 -2.48396447 36.49515961 -8.76075649 36.50113106 C-13.59827496 36.50474212 -18.43578331 36.50359595 -23.27330208 36.50100327 C-25.5885627 36.50033665 -27.90382424 36.50115315 -30.21908379 36.50348282 C-33.44743165 36.50602065 -36.67571005 36.50215369 -39.90405273 36.49658203 C-40.8584021 36.49860626 -41.81275146 36.50063049 -42.79602051 36.50271606 C-46.99417314 36.48928558 -50.92069274 36.44434834 -55.01171875 35.3671875 C-54.35171875 34.3771875 -53.69171875 33.3871875 -53.01171875 32.3671875 C-52.35171875 32.3671875 -51.69171875 32.3671875 -51.01171875 32.3671875 C-50.68171875 31.7071875 -50.35171875 31.0471875 -50.01171875 30.3671875 C-48.91859375 29.8928125 -47.82546875 29.4184375 -46.69921875 28.9296875 C-39.25561795 25.30093211 -32.00792624 18.8422851 -27.66960144 11.75460815 C-20.31229877 -0.06022881 -13.25851022 -0.56284851 0 0 Z " fill="#054954" transform="translate(577.01171875,577.6328125)"/>
<path d="M0 0 C2.26657017 3.39985525 3.40211958 6.85142946 4.6875 10.6875 C10.78420886 28.36116902 19.15750763 44.93564311 28.00634766 61.36889648 C30.69948298 66.38697014 33.24965333 71.46762199 35.77587891 76.57128906 C40.00471812 85.07845171 44.4567413 93.47025843 48.89013672 101.87207031 C49.94983453 103.90381825 50.98174946 105.94721622 52 108 C52.31710937 107.09121094 52.63421875 106.18242188 52.9609375 105.24609375 C57.15812396 93.75702825 62.91737396 82.43386703 72 74 C72.66 74.33 73.32 74.66 74 75 C73.443125 75.6084375 72.88625 76.216875 72.3125 76.84375 C63.4747569 86.99521167 57.04323549 98.81264622 54 112 C53.01 112 52.02 112 51 112 C50.58492188 111.15824219 50.16984375 110.31648437 49.7421875 109.44921875 C45.29765005 100.47949199 40.73309786 91.57423565 36.125 82.6875 C35.82010651 82.09869049 35.51521301 81.50988098 35.20108032 80.90322876 C32.30645898 75.31432205 29.41189689 69.72728639 26.40234375 64.19921875 C18.955534 50.47366615 12.61926227 36.25191601 6.25828552 21.99943542 C5.1584941 19.54064951 4.04840775 17.09660127 2.84155273 14.68823242 C1.18237119 11.35976117 0.81476642 7.91487378 0.4375 4.25 C0.31181641 3.05117188 0.31181641 3.05117188 0.18359375 1.828125 C0.12300781 1.22484375 0.06242187 0.6215625 0 0 Z " fill="#123FBA" transform="translate(410,417)"/>
<path d="M0 0 C1.05638672 0.00451172 2.11277344 0.00902344 3.20117188 0.01367188 C5.78000908 0.02534082 8.35872294 0.04171115 10.9375 0.0625 C11.2675 0.7225 11.5975 1.3825 11.9375 2.0625 C11.02983887 2.07708252 10.12217773 2.09166504 9.18701172 2.10668945 C5.7984069 2.16798149 2.41058311 2.24217576 -0.97753906 2.32495117 C-2.43999708 2.35807135 -3.90257895 2.38614305 -5.36523438 2.40893555 C-7.47579403 2.44272175 -9.58523186 2.4950438 -11.6953125 2.55078125 C-12.96262207 2.57696533 -14.22993164 2.60314941 -15.53564453 2.63012695 C-20.72136698 3.26586795 -25.22712447 5.50107987 -29.0625 9.0625 C-31.1196592 13.19205663 -31.5180027 17.28628895 -31.9375 21.8125 C-33.1803545 32.92278983 -37.11944166 42.44518311 -46.046875 49.66796875 C-52.54589146 53.96286141 -58.96822708 55.31576905 -66.74194336 55.28955078 C-67.47448334 55.28984283 -68.20702332 55.29013489 -68.96176147 55.29043579 C-71.35874701 55.28905367 -73.7554132 55.27354587 -76.15234375 55.2578125 C-77.8238559 55.25407838 -79.49537025 55.25123329 -81.16688538 55.24923706 C-85.54808689 55.24163199 -89.92915401 55.22201062 -94.31030273 55.1998291 C-98.78823021 55.17930307 -103.26617958 55.17022094 -107.74414062 55.16015625 C-116.51698849 55.13876154 -125.28972748 55.10466369 -134.0625 55.0625 C-134.0625 54.7325 -134.0625 54.4025 -134.0625 54.0625 C-108.9825 53.7325 -83.9025 53.4025 -58.0625 53.0625 C-57.5675 52.0725 -57.5675 52.0725 -57.0625 51.0625 C-56.340625 50.93875 -55.61875 50.815 -54.875 50.6875 C-47.98522482 49.15643885 -43.00268343 43.66271228 -39.0625 38.0625 C-36.55652711 33.09806082 -35.57353767 28.60727296 -35.125 23.125 C-34.33658216 15.61478152 -33.22854128 10.07023921 -27.5625 4.6875 C-19.04032279 -0.85191519 -9.88623903 -0.08108587 0 0 Z " fill="#0B3EA3" transform="translate(547.0625,524.9375)"/>
<path d="M0 0 C1.14189754 3.42569262 0.94724377 3.75779835 -0.51953125 6.8515625 C-0.87772949 7.61291504 -1.23592773 8.37426758 -1.60498047 9.15869141 C-2.00346191 9.97257324 -2.40194336 10.78645508 -2.8125 11.625 C-3.2161377 12.4607959 -3.61977539 13.2965918 -4.03564453 14.15771484 C-6.95071233 20.09407653 -10.06352784 25.90075158 -13.375 31.625 C-13.99918823 32.71675537 -13.99918823 32.71675537 -14.63598633 33.83056641 C-17.63258109 38.87752703 -17.63258109 38.87752703 -21 40 C-23.31521155 40.08998063 -25.63299526 40.11756894 -27.94995117 40.11352539 C-29.00399391 40.11374443 -29.00399391 40.11374443 -30.07933044 40.1139679 C-32.40057468 40.11327157 -34.72173854 40.10549226 -37.04296875 40.09765625 C-38.6529384 40.09579108 -40.26290861 40.09436764 -41.87287903 40.09336853 C-46.10942147 40.08955118 -50.3459296 40.07972755 -54.5824585 40.06866455 C-58.90587907 40.05843364 -63.22930519 40.05386731 -67.55273438 40.04882812 C-76.03517199 40.03810459 -84.51758173 40.02103753 -93 40 C-88.22723177 36.81815452 -83.92273692 36.87585172 -78.28198242 36.88647461 C-77.62776306 36.88632858 -76.9735437 36.88618256 -76.29949951 36.8860321 C-74.15145474 36.88672506 -72.00349825 36.89448836 -69.85546875 36.90234375 C-68.36045886 36.90421012 -66.86544835 36.90563299 -65.37043762 36.90663147 C-61.44628189 36.91043936 -57.5221635 36.92025482 -53.59802246 36.93133545 C-49.58944199 36.94158679 -45.58085545 36.94613706 -41.57226562 36.95117188 C-33.71482666 36.9618787 -25.85741798 36.97893428 -18 37 C-17.53747833 35.58414108 -17.53747833 35.58414108 -17.06561279 34.13967896 C-16.15786258 31.46512001 -15.16085906 29.15667061 -13.828125 26.6796875 C-13.41353027 25.90214111 -12.99893555 25.12459473 -12.57177734 24.32348633 C-12.13559082 23.51548584 -11.6994043 22.70748535 -11.25 21.875 C-10.3505994 20.18931559 -9.45216158 18.50311714 -8.5546875 16.81640625 C-8.11866211 15.9980127 -7.68263672 15.17961914 -7.23339844 14.33642578 C-4.73404347 9.60189944 -2.35958922 4.80550487 0 0 Z " fill="#114BC2" transform="translate(605,437)"/>
<path d="M0 0 C4.83284411 4.19538308 8.91852832 7.83147194 11 14 C7.71936163 12.62492392 6.2797905 11.28654407 4.375 8.3125 C-2.51942242 -1.18456689 -12.70014811 -5.39962962 -23.9375 -7.56640625 C-37.19551232 -9.24128813 -49.26987449 -5.31467576 -59.9765625 2.4296875 C-62.09767251 4.12858604 -63.77340871 5.54681741 -65 8 C-65.66 8 -66.32 8 -67 8 C-63.89060106 0.49397782 -55.90011908 -3.87061601 -48.75 -6.9375 C-32.41008336 -13.45138569 -13.96879409 -10.49972271 0 0 Z " fill="#1550CE" transform="translate(542,355)"/>
<path d="M0 0 C1.87555619 2.81333429 2.71811483 4.94787987 3.75 8.125 C7.91753764 19.71167057 15.29026459 28.51314054 26.5 33.875 C34.53852931 37.42286942 42.36053917 38.30052442 51.0625 38.125 C52.3609082 38.11146484 52.3609082 38.11146484 53.68554688 38.09765625 C55.79048779 38.07439723 57.89528342 38.03854008 60 38 C53.18121825 42.5458545 42.90244878 41.45001647 35.1171875 39.921875 C21.49879271 35.8943798 11.12849681 28.31606628 4 16 C1.56620643 10.65997059 -0.26584745 5.92308129 0 0 Z " fill="#114ACA" transform="translate(465,399)"/>
<path d="M0 0 C-2.79408323 1.86272215 -4.91111575 2.71616459 -8.0625 3.75 C-23.33057735 9.20863979 -33.487136 18.58965358 -40.51171875 33.12890625 C-42.81944929 38.41222059 -44.60678605 43.23286202 -45 49 C-45.66 48.67 -46.32 48.34 -47 48 C-46.3028859 35.91668895 -40.53308318 26.197369 -33 17 C-32.47921875 16.35289062 -31.9584375 15.70578125 -31.421875 15.0390625 C-24.04482819 6.80508601 -11.14897972 -0.5309038 0 0 Z " fill="#0A6376" transform="translate(521,485)"/>
<path d="M0 0 C17.70308114 0.93174111 32.86753184 9.30947964 45 22 C55 34.46704331 55 34.46704331 55 40 C54.34 40 53.68 40 53 40 C52.74347656 39.40574219 52.48695313 38.81148437 52.22265625 38.19921875 C45.01071392 22.58548502 33.07481172 12.15921431 17.14453125 5.99609375 C11.52562572 4.216192 5.79346984 3.05413726 0 2 C0 1.34 0 0.68 0 0 Z " fill="#0C8881" transform="translate(644,483)"/>
<path d="M0 0 C-2.73507798 1.82338532 -5.48228474 3.20973564 -8.44580078 4.61352539 C-25.08729687 12.56574203 -34.5432508 22.93419483 -43 39 C-43.33 39.99 -43.66 40.98 -44 42 C-44.66 42 -45.32 42 -46 42 C-41.55486471 25.33074266 -29.63301757 13.31533676 -15.17578125 4.69140625 C-5.43884505 -0.49444046 -5.43884505 -0.49444046 0 0 Z " fill="#163EC4" transform="translate(397,486)"/>
<path d="M0 0 C1.09952906 1.86638189 2.13871383 3.76882161 3.13671875 5.69140625 C3.71357422 6.80064453 4.29042969 7.90988281 4.88476562 9.05273438 C5.47966797 10.21095703 6.07457031 11.36917969 6.6875 12.5625 C7.29400391 13.72458984 7.90050781 14.88667969 8.52539062 16.08398438 C13 24.73623805 13 24.73623805 13 27 C12.34 27 11.68 27 11 27 C10.61142822 26.21761963 10.22285645 25.43523926 9.82250977 24.62915039 C8.3835154 21.73414617 6.94273793 18.84003859 5.50073242 15.9465332 C4.87631422 14.69265987 4.25261363 13.43842891 3.62963867 12.18383789 C2.73543835 10.38334385 1.83846419 8.58422825 0.94140625 6.78515625 C0.40201416 5.70113525 -0.13737793 4.61711426 -0.69311523 3.50024414 C-1.77670447 1.12359416 -1.77670447 1.12359416 -3 0 C-5.49062166 -0.10190269 -7.94696372 -0.14072025 -10.4375 -0.125 C-11.5193457 -0.12209961 -11.5193457 -0.12209961 -12.62304688 -0.11914062 C-18.12453403 -0.07489274 -23.54405398 0.26554573 -29 1 C-28.67 0.34 -28.34 -0.32 -28 -1 C-22.87203673 -2.20657959 -17.55832239 -2.42088184 -12.3125 -2.75 C-11.45849609 -2.81832031 -10.60449219 -2.88664062 -9.72460938 -2.95703125 C-8.90412109 -3.00730469 -8.08363281 -3.05757813 -7.23828125 -3.109375 C-6.49618408 -3.16061523 -5.75408691 -3.21185547 -4.98950195 -3.26464844 C-2.30278277 -2.90725445 -1.65189422 -2.13404895 0 0 Z " fill="#103AB9" transform="translate(427,485)"/>
<path d="M0 0 C0 0.66 0 1.32 0 2 C-0.72477539 1.98428955 -1.44955078 1.9685791 -2.19628906 1.95239258 C-5.54744349 1.88921857 -8.89847197 1.85075114 -12.25 1.8125 C-13.38953125 1.78736328 -14.5290625 1.76222656 -15.703125 1.73632812 C-26.70642707 1.64254998 -37.14636324 3.00242685 -46 10 C-46.52464844 10.5465625 -47.04929687 11.093125 -47.58984375 11.65625 C-49 13 -49 13 -51 13 C-50.67 12.01 -50.34 11.02 -50 10 C-49.34 10 -48.68 10 -48 10 C-48 8.68 -48 7.36 -48 6 C-47.236875 5.7525 -46.47375 5.505 -45.6875 5.25 C-43.69042837 4.57302657 -41.69827363 3.86935729 -39.76318359 3.03149414 C-31.83004583 -0.25968804 -24.45799229 -0.68826959 -15.9375 -0.8125 C-13.96233398 -0.86954102 -13.96233398 -0.86954102 -11.94726562 -0.92773438 C-2.32116777 -1.16058389 -2.32116777 -1.16058389 0 0 Z " fill="#1543CC" transform="translate(442,514)"/>
<path d="M0 0 C6.32552073 1.23424795 9.43753205 4.93299462 13 10 C17.02443509 17.29731906 18.92294958 24.64652411 18 33 C17.34 33.99 16.68 34.98 16 36 C15.96132813 34.65808594 15.96132813 34.65808594 15.921875 33.2890625 C15.33792786 20.84037113 12.81705554 12.87842716 4 4 C3.195625 3.175 2.39125 2.35 1.5625 1.5 C1.046875 1.005 0.53125 0.51 0 0 Z " fill="#0A827B" transform="translate(652,519)"/>
<path d="M0 0 C1 3 1 3 -0.08203125 5.453125 C-5.12140079 13.59802023 -10.60854816 18.60379918 -19.375 22.5 C-22.0812381 23.01547392 -23.41189154 22.74889947 -26 22 C-25.07058594 21.64808594 -24.14117188 21.29617188 -23.18359375 20.93359375 C-11.58233376 16.37366059 -5.53869448 11.25605653 0 0 Z " fill="#087F7A" transform="translate(667,556)"/>
<path d="M0 0 C-2.79408323 1.86272215 -4.91111575 2.71616459 -8.0625 3.75 C-15.01415423 6.20569725 -20.896887 9.931258 -27 14 C-27 13.01 -27 12.02 -27 11 C-19.81777946 5.11494857 -9.5924374 -1.00973025 0 0 Z " fill="#096E80" transform="translate(521,485)"/>
<path d="M0 0 C-2.50498447 2.50498447 -4.72248534 3.07806503 -8.0625 4.25 C-14.00254837 6.461018 -18.94619984 9.1998557 -24 13 C-24.66 12.67 -25.32 12.34 -26 12 C-24.54634731 10.82750647 -23.08692581 9.66216184 -21.625 8.5 C-20.40683594 7.52546875 -20.40683594 7.52546875 -19.1640625 6.53125 C-17 5 -17 5 -15 5 C-15 4.34 -15 3.68 -15 3 C-13.44033782 2.491217 -11.87710759 1.99336531 -10.3125 1.5 C-9.44238281 1.2215625 -8.57226562 0.943125 -7.67578125 0.65625 C-5.00608323 0.00149195 -2.73603316 -0.11831495 0 0 Z " fill="#0F47BC" transform="translate(511,477)"/>
<path d="M0 0 C0.33 0.66 0.66 1.32 1 2 C-3.05373151 7.91169178 -8.46244735 11.46952907 -15.3125 13.4375 C-19 14 -19 14 -22 12 C-20.35 12 -18.7 12 -17 12 C-16.67 11.34 -16.34 10.68 -16 10 C-15.278125 9.87625 -14.55625 9.7525 -13.8125 9.625 C-7.95969833 8.32437741 -4.01046877 4.2463787 0 0 Z " fill="#1048BA" transform="translate(506,566)"/>
<path d="M0 0 C0.66 0.33 1.32 0.66 2 1 C-7.72413793 10.20689655 -7.72413793 10.20689655 -14 12 C-16.234375 11.59375 -16.234375 11.59375 -18 11 C-17.11957031 10.54109375 -16.23914063 10.0821875 -15.33203125 9.609375 C-14.17058594 8.99578125 -13.00914062 8.3821875 -11.8125 7.75 C-10.66394531 7.14671875 -9.51539063 6.5434375 -8.33203125 5.921875 C-5.28265749 4.16303339 -2.67513694 2.27714105 0 0 Z " fill="#124ECE" transform="translate(544,425)"/>
<path d="M0 0 C1.4174985 4.25249549 -0.09160856 7.15595439 -2 11 C-6.79591837 18.39795918 -6.79591837 18.39795918 -10 20 C-8.88236628 16.74870192 -7.41752711 13.99693956 -5.5625 11.125 C-3.25420201 7.53279662 -1.57009781 3.96656288 0 0 Z " fill="#124BC8" transform="translate(557,404)"/>
<path d="M0 0 C0 0.66 0 1.32 0 2 C-1.36125 2.6496875 -1.36125 2.6496875 -2.75 3.3125 C-8.52194365 6.30947074 -10.40907417 8.22891577 -12.484375 14.35546875 C-12.65453125 14.89816406 -12.8246875 15.44085937 -13 16 C-13.33 16 -13.66 16 -14 16 C-13.6446631 10.07771837 -12.24411091 7.14979733 -8 3 C-2.9 0 -2.9 0 0 0 Z " fill="#0F50A8" transform="translate(528,526)"/>
<path d="M0 0 C0 0.66 0 1.32 0 2 C-9.57 1.67 -19.14 1.34 -29 1 C-29 0.67 -29 0.34 -29 0 C-24.5420032 -0.19616609 -20.08359465 -0.38047068 -15.625 -0.5625 C-14.35398437 -0.61857422 -13.08296875 -0.67464844 -11.7734375 -0.73242188 C-10.56171875 -0.78076172 -9.35 -0.82910156 -8.1015625 -0.87890625 C-6.98088379 -0.9260376 -5.86020508 -0.97316895 -4.70556641 -1.02172852 C-2 -1 -2 -1 0 0 Z " fill="#1130AA" transform="translate(442,514)"/>
<path d="M0 0 C0.66 0.33 1.32 0.66 2 1 C1.36191406 1.39832031 0.72382812 1.79664063 0.06640625 2.20703125 C-1.17302734 3.00173828 -1.17302734 3.00173828 -2.4375 3.8125 C-3.26121094 4.33457031 -4.08492187 4.85664062 -4.93359375 5.39453125 C-7.27827786 6.90960713 -7.27827786 6.90960713 -8 10 C-9.65 9.67 -11.3 9.34 -13 9 C-12.34 8.01 -11.68 7.02 -11 6 C-10.34 6 -9.68 6 -9 6 C-8.67 5.34 -8.34 4.68 -8 4 C-6.22265625 2.89453125 -6.22265625 2.89453125 -4.0625 1.8125 C-3.35222656 1.44769531 -2.64195312 1.08289063 -1.91015625 0.70703125 C-1.27980469 0.47371094 -0.64945313 0.24039063 0 0 Z " fill="#095475" transform="translate(535,604)"/>
<path d="M0 0 C0.33 0.99 0.66 1.98 1 3 C-1.64 5.97 -4.28 8.94 -7 12 C-7.66 11.67 -8.32 11.34 -9 11 C-7.87672229 9.54033966 -6.75131706 8.08231636 -5.625 6.625 C-4.99851562 5.81289063 -4.37203125 5.00078125 -3.7265625 4.1640625 C-2 2 -2 2 0 0 Z " fill="#01A4A2" transform="translate(493,499)"/>
<path d="M0 0 C0 0.99 0 1.98 0 3 C-0.33 3.33 -0.66 3.66 -1 4 C-0.34 4.66 0.32 5.32 1 6 C-1.97 6 -4.94 6 -8 6 C-5.38485683 3.87961365 -2.80362384 1.86908256 0 0 Z " fill="#0693A2" transform="translate(534,606)"/>
<path d="M0 0 C0.33 0.66 0.66 1.32 1 2 C1.99 2.33 2.98 2.66 4 3 C3 4 3 4 1.15234375 4.09765625 C-0.8984375 4.06510417 -2.94921875 4.03255208 -5 4 C-5.33 3.34 -5.66 2.68 -6 2 C-4.7934375 1.7834375 -4.7934375 1.7834375 -3.5625 1.5625 C-1.07896294 1.25864751 -1.07896294 1.25864751 0 0 Z " fill="#1858F2" transform="translate(437,510)"/>
<path d="M0 0 C3.98175544 2.10148204 6.35039045 4.36905358 9 8 C6 8 6 8 3.375 5.6875 C1 3 1 3 0 0 Z " fill="#119487" transform="translate(680,498)"/>
<path d="M0 0 C3.29148243 1.13499394 3.9959869 1.99283376 5.75 5.125 C6.1625 6.07375 6.575 7.0225 7 8 C3.70851757 6.86500606 3.0040131 6.00716624 1.25 2.875 C0.8375 1.92625 0.425 0.9775 0 0 Z " fill="#1957D6" transform="translate(546,361)"/>
<path d="M0 0 C0.66 0.33 1.32 0.66 2 1 C0.70700306 3.88437779 -0.65941363 5.87219421 -3 8 C-3.66 7.67 -4.32 7.34 -5 7 C-3.35 4.69 -1.7 2.38 0 0 Z " fill="#02A3A9" transform="translate(558,581)"/>
<path d="M0 0 C0.66 0.33 1.32 0.66 2 1 C0.02 3.31 -1.96 5.62 -4 8 C-4.33 7.01 -4.66 6.02 -5 5 C-3.35 3.35 -1.7 1.7 0 0 Z " fill="#1047C1" transform="translate(482,491)"/>
<path d="M0 0 C4 1 4 1 4 1 Z " fill="#246BEF" transform="translate(418,481)"/>
<path d="M0 0 C0.99 0.495 0.99 0.495 2 1 C1.01 1.495 1.01 1.495 0 2 C0 1.34 0 0.68 0 0 Z " fill="#1791C6" transform="translate(502,488)"/>
<path d="M0 0 C3 1 3 1 3 1 Z " fill="#257CF7" transform="translate(520,349)"/>
<path d="M0 0 C2 1 2 1 2 1 Z " fill="#26818B" transform="translate(577,632)"/>
<path d="M0 0 C2 1 2 1 2 1 Z " fill="#3A8B81" transform="translate(699,622)"/>
<path d="" fill="#388B81" transform="translate(0,0)"/>
<path d="M0 0 C2 1 2 1 2 1 Z " fill="#2067C1" transform="translate(507,610)"/>
<path d="M0 0 C2 1 2 1 2 1 Z " fill="#2654D2" transform="translate(381,607)"/>
<path d="M0 0 C2 1 2 1 2 1 Z " fill="#2954D2" transform="translate(379,606)"/>
<path d="" fill="#2B55D3" transform="translate(0,0)"/>
<path d="M0 0 C2 1 2 1 2 1 Z " fill="#2466E3" transform="translate(438,577)"/>
<path d="M0 0 C2 1 2 1 2 1 Z " fill="#3058D9" transform="translate(346,561)"/>
<path d="" fill="#305EDB" transform="translate(0,0)"/>
<path d="M0 0 C2 1 2 1 2 1 Z " fill="#2364ED" transform="translate(404,519)"/>
<path d="M0 0 C2 1 2 1 2 1 Z " fill="#14ADBD" transform="translate(568,517)"/>
<path d="M0 0 C2 1 2 1 2 1 Z " fill="#14AABF" transform="translate(552,517)"/>
<path d="M0 0 C2 1 2 1 2 1 Z " fill="#139DBB" transform="translate(529,517)"/>
<path d="M0 0 C2 1 2 1 2 1 Z " fill="#2B69E9" transform="translate(406,481)"/>
<path d="M0 0 C2 1 2 1 2 1 Z " fill="#1D80E1" transform="translate(521,478)"/>
<path d="M0 0 C2 1 2 1 2 1 Z " fill="#2193D8" transform="translate(576,477)"/>
<path d="" fill="#336EE4" transform="translate(0,0)"/>
<path d="" fill="#2679F3" transform="translate(0,0)"/>
<path d="" fill="#326FE5" transform="translate(0,0)"/>
<path d="" fill="#2F7FEF" transform="translate(0,0)"/>
<path d="" fill="#257BF9" transform="translate(0,0)"/>
<path d="M0 0 C2 1 2 1 2 1 Z " fill="#247AF6" transform="translate(527,351)"/>
<path d="M0 0 C2 1 2 1 2 1 Z " fill="#3582F2" transform="translate(522,289)"/>
<path d="M0 0 C2 1 2 1 2 1 Z " fill="#3681F2" transform="translate(498,289)"/>
<path d="" fill="#4A4A49" transform="translate(0,0)"/>
<path d="" fill="#2E5AAE" transform="translate(0,0)"/>
<path d="" fill="#288786" transform="translate(0,0)"/>
<path d="" fill="#2A8488" transform="translate(0,0)"/>
<path d="" fill="#278489" transform="translate(0,0)"/>
<path d="" fill="#268189" transform="translate(0,0)"/>
<path d="" fill="#28808A" transform="translate(0,0)"/>
<path d="" fill="#267F8B" transform="translate(0,0)"/>
<path d="" fill="#2E59AF" transform="translate(0,0)"/>
<path d="" fill="#2F56AE" transform="translate(0,0)"/>
<path d="" fill="#3457B0" transform="translate(0,0)"/>
<path d="" fill="#3456AF" transform="translate(0,0)"/>
<path d="" fill="#248C89" transform="translate(0,0)"/>
<path d="" fill="#24888A" transform="translate(0,0)"/>
<path d="" fill="#258789" transform="translate(0,0)"/>
<path d="" fill="#25878B" transform="translate(0,0)"/>
<path d="" fill="#24858B" transform="translate(0,0)"/>
<path d="" fill="#2E5CB2" transform="translate(0,0)"/>
<path d="" fill="#3256B5" transform="translate(0,0)"/>
<path d="" fill="#3455B5" transform="translate(0,0)"/>
<path d="" fill="#3555B3" transform="translate(0,0)"/>
<path d="" fill="#3B8B81" transform="translate(0,0)"/>
<path d="" fill="#465BA8" transform="translate(0,0)"/>
<path d="" fill="#415BB2" transform="translate(0,0)"/>
<path d="" fill="#2B968F" transform="translate(0,0)"/>
<path d="" fill="#179C96" transform="translate(0,0)"/>
<path d="" fill="#169C94" transform="translate(0,0)"/>
<path d="" fill="#189A95" transform="translate(0,0)"/>
<path d="" fill="#209D97" transform="translate(0,0)"/>
<path d="" fill="#2F55C9" transform="translate(0,0)"/>
<path d="" fill="#189E97" transform="translate(0,0)"/>
<path d="" fill="#2953CE" transform="translate(0,0)"/>
<path d="" fill="#1D6CB4" transform="translate(0,0)"/>
<path d="" fill="#1E6EBB" transform="translate(0,0)"/>
<path d="" fill="#2A55D2" transform="translate(0,0)"/>
<path d="" fill="#2751D1" transform="translate(0,0)"/>
<path d="" fill="#2657D1" transform="translate(0,0)"/>
<path d="" fill="#2F58D2" transform="translate(0,0)"/>
<path d="" fill="#17A8A1" transform="translate(0,0)"/>
<path d="" fill="#197DD3" transform="translate(0,0)"/>
<path d="" fill="#2E59D3" transform="translate(0,0)"/>
<path d="" fill="#1B7CD0" transform="translate(0,0)"/>
<path d="" fill="#2B56D3" transform="translate(0,0)"/>
<path d="" fill="#2C56D3" transform="translate(0,0)"/>
<path d="" fill="#266AE2" transform="translate(0,0)"/>
<path d="" fill="#2467E4" transform="translate(0,0)"/>
<path d="" fill="#188DC4" transform="translate(0,0)"/>
<path d="" fill="#1C6AD3" transform="translate(0,0)"/>
<path d="" fill="#1F6CD4" transform="translate(0,0)"/>
<path d="" fill="#205BE5" transform="translate(0,0)"/>
<path d="" fill="#2459E6" transform="translate(0,0)"/>
<path d="" fill="#3058D4" transform="translate(0,0)"/>
<path d="" fill="#1C79D4" transform="translate(0,0)"/>
<path d="" fill="#1B70D2" transform="translate(0,0)"/>
<path d="" fill="#187CBF" transform="translate(0,0)"/>
<path d="" fill="#1C77BC" transform="translate(0,0)"/>
<path d="" fill="#1C78C0" transform="translate(0,0)"/>
<path d="" fill="#10BBAC" transform="translate(0,0)"/>
<path d="" fill="#1D7ABE" transform="translate(0,0)"/>
<path d="" fill="#1D7AC0" transform="translate(0,0)"/>
<path d="" fill="#1A8ABF" transform="translate(0,0)"/>
<path d="" fill="#1F7CB6" transform="translate(0,0)"/>
<path d="" fill="#2D56D8" transform="translate(0,0)"/>
<path d="" fill="#2D58D8" transform="translate(0,0)"/>
<path d="" fill="#10BEAB" transform="translate(0,0)"/>
<path d="" fill="#1C82CA" transform="translate(0,0)"/>
<path d="" fill="#1C8BB3" transform="translate(0,0)"/>
<path d="" fill="#315BDD" transform="translate(0,0)"/>
<path d="" fill="#2773BC" transform="translate(0,0)"/>
<path d="" fill="#1E85B2" transform="translate(0,0)"/>
<path d="" fill="#25B4A8" transform="translate(0,0)"/>
<path d="" fill="#216BD0" transform="translate(0,0)"/>
<path d="" fill="#235AEA" transform="translate(0,0)"/>
<path d="" fill="#2370D1" transform="translate(0,0)"/>
<path d="" fill="#245EED" transform="translate(0,0)"/>
<path d="" fill="#255EEC" transform="translate(0,0)"/>
<path d="" fill="#2962EE" transform="translate(0,0)"/>
<path d="" fill="#1F6CD7" transform="translate(0,0)"/>
<path d="" fill="#1794BE" transform="translate(0,0)"/>
<path d="" fill="#276ADC" transform="translate(0,0)"/>
<path d="" fill="#12A7BF" transform="translate(0,0)"/>
<path d="" fill="#15A5C0" transform="translate(0,0)"/>
<path d="" fill="#2466EC" transform="translate(0,0)"/>
<path d="" fill="#14A5BE" transform="translate(0,0)"/>
<path d="" fill="#13A3BC" transform="translate(0,0)"/>
<path d="" fill="#2769DC" transform="translate(0,0)"/>
<path d="" fill="#2366EB" transform="translate(0,0)"/>
<path d="" fill="#2565EE" transform="translate(0,0)"/>
<path d="" fill="#2364EE" transform="translate(0,0)"/>
<path d="" fill="#2364E3" transform="translate(0,0)"/>
<path d="" fill="#2268E9" transform="translate(0,0)"/>
<path d="" fill="#2D67E5" transform="translate(0,0)"/>
<path d="" fill="#2D65E5" transform="translate(0,0)"/>
<path d="" fill="#2469E8" transform="translate(0,0)"/>
<path d="" fill="#2F66E3" transform="translate(0,0)"/>
<path d="" fill="#1F7BD8" transform="translate(0,0)"/>
<path d="" fill="#1F79DB" transform="translate(0,0)"/>
<path d="" fill="#1A93C8" transform="translate(0,0)"/>
<path d="" fill="#1F65EF" transform="translate(0,0)"/>
<path d="" fill="#2E6CE9" transform="translate(0,0)"/>
<path d="" fill="#1F7ADB" transform="translate(0,0)"/>
<path d="" fill="#2F6AE8" transform="translate(0,0)"/>
<path d="" fill="#2365EE" transform="translate(0,0)"/>
<path d="" fill="#3069E5" transform="translate(0,0)"/>
<path d="" fill="#2568E8" transform="translate(0,0)"/>
<path d="" fill="#1A77DA" transform="translate(0,0)"/>
<path d="" fill="#26BCB2" transform="translate(0,0)"/>
<path d="" fill="#198FCF" transform="translate(0,0)"/>
<path d="" fill="#306BE9" transform="translate(0,0)"/>
<path d="" fill="#1EA1C6" transform="translate(0,0)"/>
<path d="" fill="#266AEC" transform="translate(0,0)"/>
<path d="" fill="#2569EC" transform="translate(0,0)"/>
<path d="" fill="#1C77DF" transform="translate(0,0)"/>
<path d="" fill="#1C78E1" transform="translate(0,0)"/>
<path d="" fill="#2591E0" transform="translate(0,0)"/>
<path d="" fill="#2395D6" transform="translate(0,0)"/>
<path d="" fill="#2293DE" transform="translate(0,0)"/>
<path d="" fill="#238FE0" transform="translate(0,0)"/>
<path d="" fill="#248DDF" transform="translate(0,0)"/>
<path d="" fill="#218DDF" transform="translate(0,0)"/>
<path d="" fill="#2087DD" transform="translate(0,0)"/>
<path d="" fill="#1E86DF" transform="translate(0,0)"/>
<path d="" fill="#2083DE" transform="translate(0,0)"/>
<path d="" fill="#1E84DF" transform="translate(0,0)"/>
<path d="" fill="#2B6AEA" transform="translate(0,0)"/>
<path d="" fill="#2768E9" transform="translate(0,0)"/>
<path d="" fill="#2A68EA" transform="translate(0,0)"/>
<path d="" fill="#2B6BE9" transform="translate(0,0)"/>
<path d="" fill="#2B81EC" transform="translate(0,0)"/>
<path d="" fill="#2B6CEA" transform="translate(0,0)"/>
<path d="" fill="#2868E7" transform="translate(0,0)"/>
<path d="" fill="#2274F2" transform="translate(0,0)"/>
<path d="" fill="#2869E9" transform="translate(0,0)"/>
<path d="" fill="#2D81EB" transform="translate(0,0)"/>
<path d="" fill="#2B69E6" transform="translate(0,0)"/>
<path d="" fill="#2177F3" transform="translate(0,0)"/>
<path d="" fill="#2969E6" transform="translate(0,0)"/>
<path d="" fill="#2F81EC" transform="translate(0,0)"/>
<path d="" fill="#2673F6" transform="translate(0,0)"/>
<path d="" fill="#2674F4" transform="translate(0,0)"/>
<path d="" fill="#2073F3" transform="translate(0,0)"/>
<path d="" fill="#2577F3" transform="translate(0,0)"/>
<path d="" fill="#2775F3" transform="translate(0,0)"/>
<path d="" fill="#2678F8" transform="translate(0,0)"/>
<path d="" fill="#2679F5" transform="translate(0,0)"/>
<path d="" fill="#277BF9" transform="translate(0,0)"/>
<path d="" fill="#2778F6" transform="translate(0,0)"/>
<path d="" fill="#2479F7" transform="translate(0,0)"/>
<path d="" fill="#257FF2" transform="translate(0,0)"/>
<path d="" fill="#2181F9" transform="translate(0,0)"/>
<path d="" fill="#227FF0" transform="translate(0,0)"/>
<path d="" fill="#2778F2" transform="translate(0,0)"/>
<path d="" fill="#287AF5" transform="translate(0,0)"/>
<path d="" fill="#267AF4" transform="translate(0,0)"/>
<path d="" fill="#267BF7" transform="translate(0,0)"/>
<path d="" fill="#267AF7" transform="translate(0,0)"/>
<path d="" fill="#277BF6" transform="translate(0,0)"/>
<path d="" fill="#257AF5" transform="translate(0,0)"/>
<path d="" fill="#337FF3" transform="translate(0,0)"/>
<path d="" fill="#3480ED" transform="translate(0,0)"/>
<path d="" fill="#3778E8" transform="translate(0,0)"/>
<path d="" fill="#3284F2" transform="translate(0,0)"/>
<path d="" fill="#337AEC" transform="translate(0,0)"/>
<path d="" fill="#397DEE" transform="translate(0,0)"/>
<path d="" fill="#3886EF" transform="translate(0,0)"/>
<path d="" fill="#2E82F1" transform="translate(0,0)"/>
<path d="" fill="#2E7EEC" transform="translate(0,0)"/>
<path d="" fill="#3280EF" transform="translate(0,0)"/>
<path d="" fill="#3782F1" transform="translate(0,0)"/>
<path d="" fill="#3481F4" transform="translate(0,0)"/>
<path d="" fill="#3581EF" transform="translate(0,0)"/>
</svg>
